#!OML:ASF H:\ManfredETheater\Project 1\Capture day 1\Session 1\subject.ASF
:FULLY-SPECIFIED
:DEGREES
158
root -1.6981 20.2016 17.7726 10.6728 8.75392 7.70946
lowerback 11.2806 -3.39746 -9.74588
upperback -1.70495 -5.99217 -1.22596
thorax -7.31146 -2.53039 5.14954
lowerneck -19.7494 -1.30872 -1.92958
upperneck 15.0179 -1.48863 1.31948
head 7.90826 -0.684475 0.569636
rclavicle 2.10712e-014 1.68967e-014
rhumerus -77.6446 3.95781 -78.8592
rradius 72.404
rwrist -8.30391
rhand -20.7607 7.61293
rfingers 7.12502
rthumb 5.60537 -22.2929
lclavicle 2.10712e-014 1.68967e-014
lhumerus -23.433 -19.4656 93.1074
lradius 132.605
lwrist 17.3981
lhand -20.8592 -17.416
lfingers 7.12502
lthumb 5.51028 12.4923
rfemur -61.3527 -13.7387 17.8747
rtibia 67.1874
rfoot -3.50061 -8.53294
rtoes -23.4634
lfemur 0.0203518 -2.46777 -25.7536
ltibia 44.4788
lfoot -27.6884 -19.6101
ltoes 3.19769
159
root -1.69609 20.1242 18.3095 10.5798 8.41496 8.06899
lowerback 10.7081 -3.55919 -9.89252
upperback -1.78214 -6.16534 -1.23657
thorax -7.02849 -2.62549 5.19465
lowerneck -19.6579 -1.05027 -1.78373
upperneck 15.4576 -1.09619 0.875045
head 8.02979 -0.536647 0.446495
rclavicle -2.51463e-014 -3.18055e-015
rhumerus -79.2849 4.55608 -78.6824
rradius 73.9844
rwrist -8.79691
rhand -20.5375 7.95454
rfingers 7.12502
rthumb 5.82085 -21.9455
lclavicle -2.51463e-014 -3.18055e-015
lhumerus -24.2467 -19.0952 92.648
lradius 133.768
lwrist 17.3054
lhand -20.6567 -17.5057
lfingers 7.12502
lthumb 5.70584 12.3975
rfemur -60.4822 -13.5548 17.5871
rtibia 63.3311
rfoot -1.25692 -8.01476
rtoes -23.7862
lfemur 2.65493 -2.99739 -26.1537
ltibia 42.9986
lfoot -25.0228 -19.9753
ltoes 1.02961
160
root -1.69655 20.0646 18.8551 10.4939 8.08021 8.49356
lowerback 10.0949 -3.71365 -10.102
upperback -1.87612 -6.33273 -1.26998
thorax -6.73731 -2.71606 5.24312
lowerneck -19.5265 -0.798452 -1.64178
upperneck 15.945 -0.713555 0.455345
head 8.16368 -0.39246 0.330923
rclavicle 1.53313e-014 1.55052e-014
rhumerus -80.8592 5.04548 -78.5131
rradius 75.5372
rwrist -9.1815
rhand -20.3393 8.30868
rfingers 7.12502
rthumb 6.01222 -21.586
lclavicle 1.53313e-014 1.55052e-014
lhumerus -25.367 -18.7973 92.2436
lradius 134.711
lwrist 16.8682
lhand -20.3634 -17.6232
lfingers 7.12502
lthumb 5.98901 12.2722
rfemur -59.2617 -13.3429 17.1689
rtibia 59.3846
rfoot 1.19171 -7.64347
rtoes -23.9473
lfemur 5.14746 -3.65113 -26.6716
ltibia 41.5828
lfoot -21.6356 -20.4708
ltoes -0.8018
161
root -1.70068 20.0019 19.4048 10.4335 7.75742 8.96172
lowerback 9.4438 -3.85521 -10.3709
upperback -1.99612 -6.485 -1.31351
thorax -6.44958 -2.79647 5.30615
lowerneck -19.3566 -0.566932 -1.50598
upperneck 16.4746 -0.356863 0.0531191
head 8.30827 -0.260409 0.218753
rclavicle -4.32605e-014 -2.5842e-015
rhumerus -82.3589 5.42659 -78.3355
rradius 77.0512
rwrist -9.48852
rhand -20.1427 8.63712
rfingers 7.12502
rthumb 6.20205 -21.2521
lclavicle -4.32605e-014 -2.5842e-015
lhumerus -26.7671 -18.5857 91.9199
lradius 135.403
lwrist 16.1217
lhand -20.0129 -17.7686
lfingers 7.12502
lthumb 6.32733 12.1169
rfemur -57.8503 -13.0431 16.627
rtibia 55.4761
rfoot 3.72952 -7.41655
rtoes -23.997
lfemur 7.37971 -4.38075 -27.2602
ltibia 40.3634
lfoot -17.5402 -21.0426
ltoes -2.25064
162
root -1.7091 19.9355 19.9573 10.4147 7.45794 9.44374
lowerback 8.75186 -3.98225 -10.6845
upperback -2.14387 -6.61546 -1.35222
thorax -6.16604 -2.86367 5.39073
lowerneck -19.1425 -0.363153 -1.39187
upperneck 17.0186 -0.034332 -0.320085
head 8.45282 -0.143921 0.115285
rclavicle -5.12616e-014 -2.08724e-015
rhumerus -83.7582 5.70402 -78.1358
rradius 78.5116
rwrist -9.75808
rhand -19.9248 8.93138
rfingers 7.12502
rthumb 6.41245 -20.9515
lclavicle -5.12616e-014 -2.08724e-015
lhumerus -28.404 -18.4663 91.6886
lradius 135.823
lwrist 15.142
lhand -19.6446 -17.9388
lfingers 7.12502
lthumb 6.68291 11.9357
rfemur -56.2692 -12.6158 15.9803
rtibia 51.6215
rfoot 6.20197 -7.29864
rtoes -23.9307
lfemur 9.2953 -5.13182 -27.8552
ltibia 39.3513
lfoot -12.761 -21.6144
ltoes -3.44088
163
root -1.72165 19.8643 20.5116 10.4407 7.19643 9.89195
lowerback 8.0282 -4.09698 -11.0018
upperback -2.3177 -6.72152 -1.3684
thorax -5.89249 -2.91727 5.4943
lowerneck -18.9285 -0.1893 -1.28102
upperneck 17.5888 0.250754 -0.684734
head 8.60862 -0.0455329 0.0100239
rclavicle 2.96686e-014 3.41413e-014
rhumerus -85.0369 5.89678 -77.9091
rradius 79.9215
rwrist -10.0203
rhand -19.6933 9.20494
rfingers 7.12502
rthumb 6.63591 -20.6711
lclavicle 2.96686e-014 3.41413e-014
lhumerus -30.2359 -18.4406 91.5589
lradius 135.959
lwrist 13.9709
lhand -19.3169 -18.0766
lfingers 7.12502
lthumb 6.9993 11.7877
rfemur -54.5637 -12.0396 15.2762
rtibia 47.9294
rfoot 8.41283 -7.25275
rtoes -23.7889
lfemur 10.8008 -5.8517 -28.3734
ltibia 38.7102
lfoot -7.44621 -22.1104
ltoes -4.41884
164
root -1.73781 19.7871 21.0662 10.5114 6.99009 10.2732
lowerback 7.27695 -4.20279 -11.2888
upperback -2.5089 -6.8034 -1.35182
thorax -5.62424 -2.95895 5.60974
lowerneck -18.7227 -0.0465465 -1.16852
upperneck 18.1587 0.496284 -1.04602
head 8.76793 0.0337669 -0.0999809
rclavicle 4.09597e-014 -7.92343e-015
rhumerus -86.1635 6.01655 -77.6491
rradius 81.2767
rwrist -10.2658
rhand -19.4352 9.44573
rfingers 7.12502
rthumb 6.88504 -20.4223
lclavicle 4.09597e-014 -7.92343e-015
lhumerus -32.1976 -18.4997 91.5164
lradius 135.806
lwrist 12.7228
lhand -19.0416 -18.195
lfingers 7.12502
lthumb 7.265 11.6603
rfemur -52.7716 -11.3238 14.5676
rtibia 44.4768
rfoot 10.2648 -7.28484
rtoes -23.6479
lfemur 11.8532 -6.50728 -28.7523
ltibia 38.5389
lfoot -1.65789 -22.4778
ltoes -4.79655
165
root -1.75706 19.7024 21.6199 10.6172 6.84262 10.5457
lowerback 6.52003 -4.29669 -11.5029
upperback -2.71634 -6.85655 -1.29201
thorax -5.37673 -2.98675 5.72761
lowerneck -18.5136 0.0634002 -1.05964
upperneck 18.7035 0.699575 -1.3998
head 8.91985 0.0932273 -0.212887
rclavicle 2.95941e-014 -1.17283e-014
rhumerus -87.1169 6.07253 -77.3399
rradius 82.5652
rwrist -10.4076
rhand -19.1353 9.60559
rfingers 7.12502
rthumb 7.17458 -20.2528
lclavicle 2.95941e-014 -1.17283e-014
lhumerus -34.2576 -18.6452 91.5612
lradius 135.376
lwrist 11.4931
lhand -18.8548 -18.2489
lfingers 7.12502
lthumb 7.44527 11.6001
rfemur -50.927 -10.4789 13.9268
rtibia 41.34
rfoot 11.721 -7.45928
rtoes -23.5604
lfemur 12.4291 -7.0473 -28.9271
ltibia 38.9338
lfoot 4.4193 -22.7015
ltoes -4.33499
166
root -1.77863 19.609 22.1714 10.7416 6.76302 10.6898
lowerback 5.77387 -4.3789 -11.6149
upperback -2.92651 -6.88209 -1.1894
thorax -5.1479 -3.00268 5.8337
lowerneck -18.3175 0.142406 -0.950723
upperneck 19.215 0.860666 -1.74148
head 9.06402 0.133895 -0.327791
rclavicle 1.31074e-014 -6.65929e-015
rhumerus -87.8771 6.06643 -76.9901
rradius 83.7812
rwrist -10.4147
rhand -18.8298 9.71592
rfingers 7.12502
rthumb 7.46947 -20.1322
lclavicle 1.31074e-014 -6.65929e-015
lhumerus -36.3613 -18.8763 91.6701
lradius 134.686
lwrist 10.3813
lhand -18.7518 -18.2307
lfingers 7.12502
lthumb 7.54476 11.6147
rfemur -49.0613 -9.56108 13.4246
rtibia 38.5982
rfoot 12.8334 -7.82474
rtoes -23.4364
lfemur 12.5409 -7.44313 -28.8667
ltibia 39.9641
lfoot 10.5149 -22.7888
ltoes -2.66439
167
root -1.80157 19.5064 22.7202 10.8538 6.76114 10.6991
lowerback 5.07138 -4.44507 -11.6015
upperback -3.13095 -6.87944 -1.04962
thorax -4.95084 -3.00664 5.91314
lowerneck -18.124 0.186244 -0.852879
upperneck 19.6849 0.973558 -2.06141
head 9.19506 0.153617 -0.440317
rclavicle -2.09097e-014 2.88238e-014
rhumerus -88.4377 5.9872 -76.5898
rradius 84.9098
rwrist -10.2321
rhand -18.5276 9.7866
rfingers 7.12502
rthumb 7.76112 -20.051
lclavicle -2.09097e-014 2.88238e-014
lhumerus -38.4812 -19.1926 91.8348
lradius 133.759
lwrist 9.465
lhand -18.7158 -18.159
lfingers 7.12502
lthumb 7.5795 11.6852
rfemur -47.1771 -8.64969 13.1229
rtibia 36.3078
rfoot 13.7021 -8.40624
rtoes -23.1457
lfemur 12.2198 -7.68773 -28.5686
ltibia 41.6692
lfoot 16.2863 -22.7031
ltoes 0.477676
168
root -1.82574 19.3919 23.2645 10.9387 6.82703 10.5824
lowerback 4.43535 -4.48944 -11.4693
upperback -3.32486 -6.84733 -0.879971
thorax -4.79391 -2.99737 5.96448
lowerneck -17.9225 0.197109 -0.767707
upperneck 20.0969 1.04071 -2.36135
head 9.30487 0.153726 -0.550343
rclavicle 2.59911e-014 -7.95139e-016
rhumerus -88.7904 5.82484 -76.1439
rradius 85.931
rwrist -9.84806
rhand -18.2502 9.83414
rfingers 7.12502
rthumb 8.02889 -19.9934
lclavicle 2.59911e-014 -7.95139e-016
lhumerus -40.583 -19.5897 92.0385
lradius 132.618
lwrist 8.78581
lhand -18.7331 -18.0281
lfingers 7.12502
lthumb 7.56279 11.8167
rfemur -45.3067 -7.8174 13.0728
rtibia 34.5109
rfoot 14.4794 -9.16223
rtoes -22.5216
lfemur 11.5617 -7.77904 -28.0532
ltibia 44.0359
lfoot 21.1882 -22.4385
ltoes 4.16118
